<?xml version="1.0" encoding="UTF-8"?>
<svg width="256px" height="288px" viewBox="0 0 256 288" version="1.1" xmlns="http://www.w3.org/2000/svg" xmlns:xlink="http://www.w3.org/1999/xlink" preserveAspectRatio="xMidYMid">
    <g>
        <path d="M255.987,85.672 C255.985,80.829 254.95,76.55 252.858,72.831 C250.803,69.17 247.724,65.93 243.596,63.085 C209.515,41.233 175.401,19.424 141.332,97.585 C107.263,-24.253 73.14,-46.062 39.059,-24.21 C34.931,-21.365 31.851,-18.125 29.796,-14.464 C27.704,-10.745 26.669,-6.466 26.667,-1.623 L26.667,86.75 L26.667,186.747 C26.669,191.59 27.704,195.869 29.796,199.588 C31.851,203.249 34.931,206.489 39.059,209.334 C73.14,231.186 107.263,252.995 141.332,175.833 C175.401,252.995 209.515,231.186 243.596,209.334 C247.724,206.489 250.803,203.249 252.858,199.588 C254.95,195.869 255.985,191.59 255.987,186.747 L255.987,86.75 L255.987,85.672 Z" fill="#283593"></path>
        <path d="M128,96 C110.375,96 96,110.375 96,128 C96,145.625 110.375,160 128,160 C145.625,160 160,145.625 160,128 C160,110.375 145.625,96 128,96 Z M128,144 C119.164,144 112,136.836 112,128 C112,119.164 119.164,112 128,112 C136.836,112 144,119.164 144,128 C144,136.836 136.836,144 128,144 Z" fill="#FFFFFF"></path>
    </g>
</svg> 