<?xml version="1.0" encoding="UTF-8"?>
<svg width="256px" height="288px" viewBox="0 0 256 288" version="1.1" xmlns="http://www.w3.org/2000/svg" xmlns:xlink="http://www.w3.org/1999/xlink" preserveAspectRatio="xMidYMid">
    <g>
        <path d="M255.569,84.452376 C255.567,79.622376 254.534,75.354376 252.445,71.646376 C250.393,67.996376 247.32,64.766376 243.198,61.934376 C209.173,40.135376 175.115,18.370376 141.089,96.577376 C107.063,-24.837376 73.005,-46.602376 38.98,-24.803376 C34.858,-21.971376 31.785,-18.741376 29.733,-15.091376 C27.644,-11.383376 26.611,-7.115376 26.609,-2.285376 L26.609,86.452376 L26.609,186.429376 C26.611,191.259376 27.644,195.527376 29.733,199.235376 C31.785,202.885376 34.858,206.115376 38.98,208.947376 C73.005,230.746376 107.063,252.511376 141.089,175.304376 C175.115,252.511376 209.173,230.746376 243.198,208.947376 C247.32,206.115376 250.393,202.885376 252.445,199.235376 C254.534,195.527376 255.567,191.259376 255.569,186.429376 L255.569,84.452376 Z" fill="#004482"></path>
        <g transform="translate(81.091376, 104.872376)">
            <path d="M74.477,0 L74.477,10.027 L64.45,10.027 L64.45,20.0543 L74.477,20.0543 L74.477,30.0813 L84.504,30.0813 L84.504,20.0543 L94.531,20.0543 L94.531,10.027 L84.504,10.027 L84.504,0 L74.477,0 Z" fill="#FFFFFF"></path>
            <path d="M37.5,0 L37.5,10.027 L27.473,10.027 L27.473,20.0543 L37.5,20.0543 L37.5,30.0813 L47.527,30.0813 L47.527,20.0543 L57.554,20.0543 L57.554,10.027 L47.527,10.027 L47.527,0 L37.5,0 Z" fill="#FFFFFF"></path>
        </g>
    </g>
</svg> 