<?xml version="1.0" encoding="UTF-8"?>
<svg width="256px" height="326px" viewBox="0 0 256 326" version="1.1" xmlns="http://www.w3.org/2000/svg" xmlns:xlink="http://www.w3.org/1999/xlink" preserveAspectRatio="xMidYMid">
    <g>
        <path d="M251.172245,102.608019 L134.415678,3.72832574 C132.731714,2.33530513 130.166632,2.33530513 128.484228,3.72832574 L11.7276495,102.608019 C10.0476591,103.999872 9.24560894,106.113507 9.87229532,108.115377 L55.0652029,236.473055 C55.6908807,238.474925 57.4599961,239.967544 59.5872467,240.155353 L201.312741,255.734804 C201.706109,255.769876 202.099477,255.769876 202.492845,255.734804 L344.218339,240.155353 C346.34559,239.967544 348.114705,238.474925 348.740383,236.473055 L393.933291,108.115377 C394.559969,106.113507 393.757919,103.999872 392.077928,102.608019 L251.172245,102.608019 Z" fill="#000000"></path>
        <path d="M251.172245,102.608019 L134.415678,3.72832574 C132.731714,2.33530513 130.166632,2.33530513 128.484228,3.72832574 L11.7276495,102.608019 C10.0476591,103.999872 9.24560894,106.113507 9.87229532,108.115377 L55.0652029,236.473055 C55.6908807,238.474925 57.4599961,239.967544 59.5872467,240.155353 L201.312741,255.734804 C201.706109,255.769876 202.099477,255.769876 202.492845,255.734804 L344.218339,240.155353 C346.34559,239.967544 348.114705,238.474925 348.740383,236.473055 L393.933291,108.115377 C394.559969,106.113507 393.757919,103.999872 392.077928,102.608019 L251.172245,102.608019 Z" fill="#FFFFFF"></path>
        <path d="M153.666922,146.646071 C147.402624,146.646071 142.288139,151.760556 142.288139,158.024854 C142.288139,164.289152 147.402624,169.403636 153.666922,169.403636 C159.93122,169.403636 165.045705,164.289152 165.045705,158.024854 C165.045705,151.760556 159.93122,146.646071 153.666922,146.646071 L153.666922,146.646071 Z M206.71818,164.694454 C206.71818,161.900859 204.425667,159.609906 201.633632,159.609906 C198.840037,159.609906 196.549084,161.900859 196.549084,164.694454 C196.549084,167.487049 198.840037,169.779002 201.633632,169.779002 C204.425667,169.779002 206.71818,167.487049 206.71818,164.694454 L206.71818,164.694454 Z M181.902834,164.694454 C181.902834,161.900859 179.610321,159.609906 176.817726,159.609906 C174.024131,159.609906 171.732178,161.900859 171.732178,164.694454 C171.732178,167.487049 174.024131,169.779002 176.817726,169.779002 C179.610321,169.779002 181.902834,167.487049 181.902834,164.694454 L181.902834,164.694454 Z" fill="#000000"></path>
    </g>
</svg> 