<?xml version="1.0" encoding="UTF-8"?>
<svg width="256px" height="256px" viewBox="0 0 256 256" version="1.1" xmlns="http://www.w3.org/2000/svg" xmlns:xlink="http://www.w3.org/1999/xlink" preserveAspectRatio="xMidYMid">
    <g>
        <path d="M251.172245,116.593517 L139.398454,4.82845302 C132.966142,-1.60948434 122.563419,-1.60948434 116.131107,4.82845302 L92.8753882,28.0841153 L122.515227,57.7239492 C129.226559,55.4178667 136.853708,56.7701288 142.428872,62.3452932 C148.015346,67.931867 149.360646,75.5892466 147.036301,82.3093243 L175.645864,110.918887 C182.365996,108.594543 190.023475,109.939843 195.610159,115.526417 C203.056974,122.973233 203.056974,135.08322 195.610159,142.530036 C188.163343,149.976851 176.053356,149.976851 168.606541,142.530036 C162.731425,136.654919 161.443628,128.427922 164.289871,121.510924 L137.770107,95.0021472 L137.770107,182.333722 C139.653808,183.286771 141.41901,184.600835 142.928961,186.110787 C150.375776,193.557602 150.375776,205.667589 142.928961,213.114404 C135.482145,220.56122 123.372158,220.56122 115.925343,213.114404 C108.478527,205.667589 108.478527,193.557602 115.925343,186.110787 C117.708044,184.328086 119.79546,183.032637 122.001386,182.239009 L122.001386,94.0750473 C119.805461,93.2814189 117.718045,91.9859701 115.925343,90.2032689 C109.984927,84.2628523 108.741339,75.9166045 111.695836,68.9583653 L82.4258979,39.6884276 L7.32824944,114.785075 C0.89593724,121.217387 0.89593724,131.62011 7.32824944,138.052423 L119.102041,249.826487 C125.534353,256.264825 135.937076,256.264825 142.369388,249.826487 L251.172245,141.023629 C257.604558,134.591317 257.604558,124.188594 251.172245,117.756282 L251.172245,116.593517 Z" fill="#DE4C36"></path>
    </g>
</svg> 