<?xml version="1.0" encoding="UTF-8"?>
<svg width="256px" height="256px" viewBox="0 0 256 256" version="1.1" xmlns="http://www.w3.org/2000/svg" xmlns:xlink="http://www.w3.org/1999/xlink" preserveAspectRatio="xMidYMid">
    <g>
        <path d="M128,0 C57.28,0 0,57.28 0,128 C0,198.72 57.28,256 128,256 C198.72,256 256,198.72 256,128 C256,57.28 198.72,0 128,0" fill="#FF0000"></path>
        <path d="M128,51.2 C91.52,51.2 61.44,81.28 61.44,117.76 C61.44,154.24 91.52,184.32 128,184.32 C164.48,184.32 194.56,154.24 194.56,117.76 C194.56,81.28 164.48,51.2 128,51.2 M128,153.6 C108.8,153.6 92.16,136.96 92.16,117.76 C92.16,98.56 108.8,81.92 128,81.92 C147.2,81.92 163.84,98.56 163.84,117.76 C163.84,136.96 147.2,153.6 128,153.6" fill="#FFFFFF"></path>
    </g>
</svg> 