<?xml version="1.0" encoding="UTF-8"?>
<svg width="256px" height="255px" viewBox="0 0 256 255" version="1.1" xmlns="http://www.w3.org/2000/svg" xmlns:xlink="http://www.w3.org/1999/xlink" preserveAspectRatio="xMidYMid">
    <defs>
        <linearGradient x1="12.959%" y1="12.039%" x2="79.639%" y2="78.201%" id="linearGradient-1">
            <stop stop-color="#387EB8" offset="0%"></stop>
            <stop stop-color="#366994" offset="100%"></stop>
        </linearGradient>
        <linearGradient x1="19.128%" y1="20.579%" x2="90.742%" y2="88.429%" id="linearGradient-2">
            <stop stop-color="#FFE052" offset="0%"></stop>
            <stop stop-color="#FFC331" offset="100%"></stop>
        </linearGradient>
    </defs>
    <g>
        <path d="M126.916,0 C62.131,0 66.213,28.237 66.213,28.237 L66.299,57.617 L128.402,57.617 L128.402,66.087 L41.214,66.087 C41.214,66.087 0,61.411 0,126.821 C0,192.232 36.016,189.854 36.016,189.854 L57.14,189.854 L57.14,159.311 C57.14,159.311 56.096,123.295 93.324,123.295 L154.91,123.295 C154.91,123.295 189.428,123.652 189.428,89.692 L189.428,33.739 C189.428,33.739 193.421,0 126.916,0 Z M92.802,19.612 C100.926,19.612 107.523,26.209 107.523,34.333 C107.523,42.457 100.926,49.054 92.802,49.054 C84.678,49.054 78.082,42.457 78.082,34.333 C78.082,26.209 84.678,19.612 92.802,19.612 Z" fill="url(#linearGradient-1)"></path>
        <path d="M128.757,254.126 C193.542,254.126 189.46,225.889 189.46,225.889 L189.374,196.509 L127.271,196.509 L127.271,188.039 L214.459,188.039 C214.459,188.039 255.673,192.715 255.673,127.305 C255.673,61.894 219.657,64.272 219.657,64.272 L198.533,64.272 L198.533,94.815 C198.533,94.815 199.577,130.831 162.349,130.831 L100.763,130.831 C100.763,130.831 66.245,130.474 66.245,164.434 L66.245,220.387 C66.245,220.387 62.252,254.126 128.757,254.126 Z M162.871,234.514 C154.747,234.514 148.15,227.917 148.15,219.793 C148.15,211.669 154.747,205.072 162.871,205.072 C170.995,205.072 177.592,211.669 177.592,219.793 C177.592,227.917 170.995,234.514 162.871,234.514 Z" fill="url(#linearGradient-2)"></path>
    </g>
</svg> 