<?xml version="1.0" encoding="UTF-8"?>
<svg width="256px" height="270px" viewBox="0 0 256 270" version="1.1" xmlns="http://www.w3.org/2000/svg" xmlns:xlink="http://www.w3.org/1999/xlink" preserveAspectRatio="xMidYMid">
    <g>
        <path d="M125.97875,0.0004 C194.947875,0.0004 251.199875,56.2524 251.199875,125.2214 C251.199875,194.1904 194.947875,250.4424 125.97875,250.4424 C57.009875,250.4424 0.757875,194.1904 0.757875,125.2214 C0.757875,56.2524 57.009875,0.0004 125.97875,0.0004" fill="#00B400"></path>
        <path d="M127.389875,37.7004 C112.409875,37.7004 100.239875,49.8704 100.239875,64.8504 C100.239875,79.8304 112.409875,92.0004 127.389875,92.0004 C142.369875,92.0004 154.539875,79.8304 154.539875,64.8504 C154.539875,49.8704 142.369875,37.7004 127.389875,37.7004" fill="#FFFFFF"></path>
        <path d="M127.389875,158.3004 C142.369875,158.3004 154.539875,146.1304 154.539875,131.1504 C154.539875,116.1704 142.369875,104.0004 127.389875,104.0004 C112.409875,104.0004 100.239875,116.1704 100.239875,131.1504 C100.239875,146.1304 112.409875,158.3004 127.389875,158.3004" fill="#FFFFFF"></path>
        <path d="M127.389875,212.7004 C142.369875,212.7004 154.539875,200.5304 154.539875,185.5504 C154.539875,170.5704 142.369875,158.4004 127.389875,158.4004 C112.409875,158.4004 100.239875,170.5704 100.239875,185.5504 C100.239875,200.5304 112.409875,212.7004 127.389875,212.7004" fill="#FFFFFF"></path>
    </g>
</svg> 