<?xml version="1.0" encoding="UTF-8"?>
<svg width="256px" height="256px" viewBox="0 0 256 256" version="1.1" xmlns="http://www.w3.org/2000/svg" xmlns:xlink="http://www.w3.org/1999/xlink" preserveAspectRatio="xMidYMid">
    <g>
        <path d="M127.999746,23.06353 C162.177385,23.06353 187.384036,26.3871171 187.384036,30.7344465 C187.384036,35.0817759 162.177385,38.4053629 127.999746,38.4053629 C93.8221065,38.4053629 68.6154558,35.0817759 68.6154558,30.7344465 C68.6154558,26.3871171 93.8221065,23.06353 127.999746,23.06353 M127.999746,0 C57.3084832,0 0,13.7121424 0,30.7344465 L0,157.665631 C0,174.687935 57.3084832,188.400077 127.999746,188.400077 C198.691009,188.400077 256,174.687935 256,157.665631 L256,30.7344465 C256,13.7121424 198.691009,0 127.999746,0 M127.999746,183.983283 C63.0466926,183.983283 10.2046745,172.619148 10.2046745,157.665631 L10.2046745,43.2531338 C27.3724736,55.9634526 74.3649652,63.8882708 127.999746,63.8882708 C181.634527,63.8882708 228.627019,55.9634526 245.794818,43.2531338 L245.794818,157.665631 C245.794818,172.619148 193.0528,183.983283 127.999746,183.983283" fill="#00546B"></path>
        <path d="M108.075141,103.787004 C87.4066996,103.787004 72.7624339,100.070892 72.7624339,95.3833377 C72.7624339,90.6957835 87.4066996,86.9796716 108.075141,86.9796716 C128.743583,86.9796716 143.387848,90.6957835 143.387848,95.3833377 C143.387848,100.070892 128.743583,103.787004 108.075141,103.787004 M108.075141,63.8882708 C81.3775027,63.8882708 62.5577594,77.6015727 62.5577594,95.3833377 C62.5577594,113.165103 81.3775027,126.878405 108.075141,126.878405 C134.77278,126.878405 153.592523,113.165103 153.592523,95.3833377 C153.592523,77.6015727 134.77278,63.8882708 108.075141,63.8882708" fill="#00546B"></path>
    </g>
</svg> 